# xmcd
#
# Track frame offsets:
#	150
#	7650
#	27829
#	42004
#	57864
#	72842
#	83650
#	96401
#	113358
#	129750
#	144372
#	156673
#	167363
#	185533
#
# Disc length: 2548 seconds
#
# Revision: 1
# Processed by: cddbd v1.5.1PL0 Copyright (c) Steve Scherf et al.
# Submitted via: audiograbber 1.83.01
#
DISCID=a009f20e
DTITLE=Various Artist - Double Cream
DYEAR=2004
DGENRE=Hip-Hop
TTITLE0=DJ Stylus - Intro
TTITLE1=Rico Wondahman and Michel - The Genius Returns
TTITLE2=Palestine - Reflections
TTITLE3=Cami - Hip-Hop
TTITLE4=K-Real - First Warning
TTITLE5=ADM - Write Me A Poem
TTITLE6=Proper - Throw A Tantrum
TTITLE7=Rico Wondahman and Jay-Json - Double Team
TTITLE8=Campus Clique - My Way
TTITLE9=DJ 4Star - The Substitute
TTITLE10=Sub Fu Dogg - Wildout! (Fo Reel Reel)
TTITLE11=Mazy - The Question Is
TTITLE12=Selah - Back Again
TTITLE13=Mekano - Have A Nice Weekend
EXTD=
EXTT0=
EXTT1=
EXTT2=
EXTT3=
EXTT4=
EXTT5=
EXTT6=
EXTT7=
EXTT8=
EXTT9=
EXTT10=
EXTT11=
EXTT12=
EXTT13=
PLAYORDER=
